# xmcd CD database file
#
# Track frame offsets:
#	150
#	15684
#	36760
#	60785
#	86215
#	99733
#	112841
#	128898
#	150061
#	164958
#	177919
#	197207
#	208344
#	228102
#	257197
#	278125
#
# Disc length: 4000 seconds
#
# Revision: 0
# Processed by: cddbd v1.5.2PL0 Copyright (c) Steve Scherf et al.
# Submitted via: jetAudio 7
#
DISCID=d70f9e10
DTITLE=Alison Krauss - A Hundred Miles Or More: A Collection
DYEAR=1900
DGENRE=Ballad
TTITLE0=You're Just A Country Boy
TTITLE1=Simple Love
TTITLE2=Jacob's Dream
TTITLE3=Away Down The River
TTITLE4=Sawing On The Strings
TTITLE5=Down To The River To Pray
TTITLE6=Baby Mine
TTITLE7=Molly Ban (Bawn)
TTITLE8=How's The World Treating You (Duet With James Taylor)
TTITLE9=The Scarlet Tide
TTITLE10=Whiskey Lullaby (Duet With Brad Paisley)
TTITLE11=You Will Be My Ain True Love
TTITLE12=I Give You To His Heart
TTITLE13=Get Me Through December
TTITLE14=Missing You (Duet With John Waite)
TTITLE15=Lay Down Beside Me (Duet With John Waite)
EXTD=
EXTT0=
EXTT1=
EXTT2=
EXTT3=
EXTT4=
EXTT5=
EXTT6=
EXTT7=
EXTT8=
EXTT9=
EXTT10=
EXTT11=
EXTT12=
EXTT13=
EXTT14=
EXTT15=
PLAYORDER=
